<svg xmlns="http://www.w3.org/2000/svg" viewBox="0 0 64 64" fill="none">
  <!-- Background circle -->
  <circle cx="32" cy="32" r="32" fill="#1D6FB8"/>
  <!-- Shield body -->
  <path d="M32 10 L50 18 L50 34 C50 44 42 52 32 55 C22 52 14 44 14 34 L14 18 Z" fill="#FFFFFF" opacity="0.15"/>
  <path d="M32 13 L48 20.5 L48 34 C48 43 41 50.5 32 53 C23 50.5 16 43 16 34 L16 20.5 Z" fill="#FFFFFF" opacity="0.2"/>
  <!-- Whistle icon inside shield -->
  <path d="M32 14 L46 21 L46 34 C46 42 40 49 32 52 C24 49 18 42 18 34 L18 21 Z" fill="none" stroke="#FFFFFF" stroke-width="1.5"/>
  <!-- Megaphone/speaker shape -->
  <path d="M23 28 L23 37 L27 37 L27 28 Z" fill="white"/>
  <path d="M27 25 L35 21 L35 40 L27 37 Z" fill="white"/>
  <!-- Sound waves -->
  <path d="M37 26 Q40 29.5 37 33" stroke="white" stroke-width="1.8" stroke-linecap="round" fill="none"/>
  <path d="M39.5 23.5 Q44 29.5 39.5 35.5" stroke="white" stroke-width="1.8" stroke-linecap="round" fill="none" opacity="0.7"/>
  <!-- Star accent top right of shield -->
  <circle cx="44" cy="17" r="3" fill="#FAC775"/>
</svg>
